<svg width="320" height="320" viewBox="0 0 320 320" fill="none" xmlns="http://www.w3.org/2000/svg">
<path d="M30.729 145C31.5354 145 32.189 145.654 32.189 146.461V149.461C32.1887 150.267 31.5353 150.921 30.729 150.921C29.9225 150.921 29.2683 150.267 29.2681 149.461V146.461C29.2681 145.654 29.9224 145 30.729 145ZM25.1128 144.099C25.6748 143.52 26.5997 143.507 27.1782 144.069C27.7566 144.631 27.7704 145.556 27.2085 146.135L24.7563 148.658C24.1943 149.236 23.2694 149.249 22.6909 148.688C22.1128 148.125 22.0999 147.201 22.6616 146.623L25.1128 144.099ZM34.5659 143.873C35.1445 143.311 36.0694 143.325 36.6313 143.903L39.0825 146.427C39.6446 147.005 39.6308 147.93 39.0522 148.492C38.4737 149.054 37.5497 149.04 36.9878 148.462L34.5356 145.938C33.9739 145.36 33.9874 144.435 34.5659 143.873ZM39.729 140C40.5354 140 41.189 140.654 41.189 141.461C41.1887 142.267 40.5353 142.921 39.729 142.921H36.729C35.9225 142.921 35.2683 142.267 35.2681 141.461C35.2681 140.654 35.9224 140 36.729 140H39.729ZM24.5894 139.343C25.3958 139.343 26.0501 139.996 26.0503 140.803C26.0503 141.609 25.396 142.264 24.5894 142.264H21.1235C20.3169 142.264 19.6626 141.609 19.6626 140.803C19.6628 139.996 20.317 139.343 21.1235 139.343H24.5894ZM22.9722 133.038C23.5506 132.476 24.4755 132.489 25.0376 133.067L27.4897 135.592C28.0513 136.17 28.0377 137.094 27.4595 137.656C26.8809 138.218 25.9561 138.205 25.394 137.627L22.9429 135.104C22.3809 134.525 22.3939 133.6 22.9722 133.038ZM36.6958 133.428C37.2661 132.857 38.1909 132.857 38.7612 133.428C39.3316 133.998 39.3316 134.923 38.7612 135.493L36.7612 137.493C36.1909 138.064 35.2662 138.064 34.6958 137.493C34.1255 136.923 34.1255 135.998 34.6958 135.428L36.6958 133.428ZM30.729 131C31.5354 131 32.189 131.654 32.189 132.461V135.461C32.1887 136.267 31.5353 136.921 30.729 136.921C29.9225 136.921 29.2683 136.267 29.2681 135.461V132.461C29.2681 131.654 29.9224 131 30.729 131Z" fill="#D2D8DF"/>
<path d="M191.729 10C192.535 10.0002 193.189 10.6545 193.189 11.4609V13.4609C193.189 14.2672 192.535 14.9207 191.729 14.9209C190.923 14.9209 190.268 14.2673 190.268 13.4609V11.4609C190.268 10.6543 190.922 10 191.729 10ZM187.729 6C188.535 6.00024 189.189 6.65447 189.189 7.46094C189.189 8.2672 188.535 8.92066 187.729 8.9209H185.729C184.923 8.9209 184.268 8.26735 184.268 7.46094C184.268 6.65433 184.922 6 185.729 6H187.729ZM197.729 6C198.535 6.00024 199.189 6.65447 199.189 7.46094C199.189 8.2672 198.535 8.92066 197.729 8.9209H195.729C194.923 8.9209 194.268 8.26735 194.268 7.46094C194.268 6.65433 194.922 6 195.729 6H197.729ZM191.729 0C192.535 0.00023639 193.189 0.654471 193.189 1.46094V3.46094C193.189 4.2672 192.535 4.92066 191.729 4.9209C190.923 4.9209 190.268 4.26735 190.268 3.46094V1.46094C190.268 0.654326 190.922 0 191.729 0Z" fill="#D2D8DF"/>
<path d="M75.729 98C76.5354 98.0002 77.189 98.6545 77.189 99.4609V102.461C77.1887 103.267 76.5353 103.921 75.729 103.921C74.9225 103.921 74.2683 103.267 74.2681 102.461V99.4609C74.2681 98.6543 74.9224 98 75.729 98ZM69.729 93C70.5354 93.0002 71.189 93.6545 71.189 94.4609C71.1887 95.2672 70.5353 95.9207 69.729 95.9209H66.729C65.9225 95.9209 65.2683 95.2673 65.2681 94.4609C65.2681 93.6543 65.9224 93 66.729 93H69.729ZM84.729 93C85.5354 93.0002 86.189 93.6545 86.189 94.4609C86.1887 95.2672 85.5353 95.9207 84.729 95.9209H81.729C80.9225 95.9209 80.2683 95.2673 80.2681 94.4609C80.2681 93.6543 80.9224 93 81.729 93H84.729ZM75.729 84C76.5354 84.0002 77.189 84.6545 77.189 85.4609V88.4609C77.1887 89.2672 76.5353 89.9207 75.729 89.9209C74.9225 89.9209 74.2683 89.2673 74.2681 88.4609V85.4609C74.2681 84.6543 74.9224 84 75.729 84Z" fill="#D2D8DF"/>
<path d="M260.982 194.5C263.372 194.5 265.31 196.438 265.31 198.829C265.31 201.22 263.372 203.158 260.982 203.158C258.592 203.158 256.654 201.22 256.654 198.829" stroke="#D2D8DF" stroke-width="2.921" stroke-linecap="round"/>
<path fill-rule="evenodd" clip-rule="evenodd" d="M280.789 155.224C283.359 154.422 287.298 151.28 288.21 147.898C289.037 150.887 292.503 154.422 295.631 154.69C292.11 155.937 288.744 159.64 288.21 162.549C287.846 159.584 283.191 155.656 280.789 155.224Z" fill="#EBECEE"/>
<path fill-rule="evenodd" clip-rule="evenodd" d="M17 193.166C18.2853 192.765 20.2541 191.194 20.7099 189.504C21.1234 190.997 22.8561 192.765 24.4199 192.9C22.66 193.522 20.9774 195.374 20.7099 196.829C20.5283 195.346 18.2004 193.382 17 193.166Z" fill="#EBECEE"/>
<path fill-rule="evenodd" clip-rule="evenodd" d="M40.8525 54.0577C40.8525 55.9123 39.3498 57.4145 37.4966 57.4145C35.6424 57.4145 34.1406 55.9123 34.1406 54.0577C34.1406 52.204 35.6424 50.7009 37.4966 50.7009C39.3498 50.7009 40.8525 52.204 40.8525 54.0577Z" fill="#D1D8DF"/>
<path fill-rule="evenodd" clip-rule="evenodd" d="M264.948 63.0712C264.948 66.1699 262.435 68.6818 259.338 68.6818C256.24 68.6818 253.729 66.1699 253.729 63.0712C253.729 59.9726 256.24 57.4607 259.338 57.4607C262.435 57.4607 264.948 59.9726 264.948 63.0712Z" fill="#EBECEE"/>
<path fill-rule="evenodd" clip-rule="evenodd" d="M302.642 47.8702C302.642 50.3286 300.65 52.3208 298.194 52.3208C295.736 52.3208 293.744 50.3286 293.744 47.8702C293.744 45.4119 295.736 43.4197 298.194 43.4197C300.65 43.4197 302.642 45.4119 302.642 47.8702Z" fill="#EBECEE"/>
<path fill-rule="evenodd" clip-rule="evenodd" d="M101.903 32.4923C101.903 34.3469 100.401 35.8491 98.5473 35.8491C96.6941 35.8491 95.1914 34.3469 95.1914 32.4923C95.1914 30.6385 96.6941 29.1355 98.5473 29.1355C100.401 29.1355 101.903 30.6385 101.903 32.4923Z" stroke="#D2D8DF" stroke-width="2.921" stroke-linecap="round"/>
<path fill-rule="evenodd" clip-rule="evenodd" d="M186.228 207.46H104.223C98.4512 207.46 93.7266 202.722 93.7266 196.931V79.9879C93.7266 74.1966 98.4512 69.4604 104.223 69.4604H186.228C192.002 69.4604 196.727 74.1966 196.727 79.9879V196.931C196.727 202.722 192.002 207.46 186.228 207.46Z" fill="#D9DDE1"/>
<path fill-rule="evenodd" clip-rule="evenodd" d="M179.228 212.46H97.223C91.4512 212.46 86.7266 207.722 86.7266 201.931V84.9879C86.7266 79.1966 91.4512 74.4604 97.223 74.4604H179.228C185.002 74.4604 189.727 79.1966 189.727 84.9879V201.931C189.727 207.722 185.002 212.46 179.228 212.46Z" fill="#E1E4E9"/>
<path fill-rule="evenodd" clip-rule="evenodd" d="M172.419 216.408H90.2447C84.4609 216.408 79.7266 211.689 79.7266 205.921V89.4629C79.7266 83.6956 84.4609 78.979 90.2447 78.979H172.419C178.205 78.979 182.939 83.6956 182.939 89.4629V205.921C182.939 211.689 178.205 216.408 172.419 216.408Z" fill="#D8DBEA"/>
<path fill-rule="evenodd" clip-rule="evenodd" d="M172.419 216.408H90.2447C84.4609 216.408 79.7266 211.689 79.7266 205.921V89.4629C79.7266 83.6956 84.4609 78.979 90.2447 78.979H172.419C178.205 78.979 182.939 83.6956 182.939 89.4629V205.921C182.939 211.689 178.205 216.408 172.419 216.408Z" fill="#F1F2F7"/>
<path fill-rule="evenodd" clip-rule="evenodd" d="M160.574 114.46H99.8788C98.1454 114.46 96.7266 113.111 96.7266 111.462C96.7266 109.81 98.1454 108.46 99.8788 108.46H160.574C162.308 108.46 163.727 109.81 163.727 111.462C163.727 113.111 162.308 114.46 160.574 114.46Z" fill="#E0E2EE"/>
<path fill-rule="evenodd" clip-rule="evenodd" d="M160.574 132.46H99.8788C98.1454 132.46 96.7266 131.111 96.7266 129.462C96.7266 127.81 98.1454 126.46 99.8788 126.46H160.574C162.308 126.46 163.727 127.81 163.727 129.462C163.727 131.111 162.308 132.46 160.574 132.46Z" fill="#E0E2EE"/>
<path fill-rule="evenodd" clip-rule="evenodd" d="M160.574 150.46H99.8788C98.1454 150.46 96.7266 149.111 96.7266 147.462C96.7266 145.813 98.1454 144.46 99.8788 144.46H160.574C162.308 144.46 163.727 145.813 163.727 147.462C163.727 149.111 162.308 150.46 160.574 150.46Z" fill="#E0E2EE"/>
<path fill-rule="evenodd" clip-rule="evenodd" d="M160.574 168.46H99.8788C98.1454 168.46 96.7266 167.111 96.7266 165.462C96.7266 163.81 98.1454 162.46 99.8788 162.46H160.574C162.308 162.46 163.727 163.81 163.727 165.462C163.727 167.111 162.308 168.46 160.574 168.46Z" fill="#E0E2EE"/>
<path fill-rule="evenodd" clip-rule="evenodd" d="M131.561 186.46H99.8922C98.1515 186.46 96.7266 185.111 96.7266 183.462C96.7266 181.81 98.1515 180.46 99.8922 180.46H131.561C133.302 180.46 134.727 181.81 134.727 183.462C134.727 185.111 133.302 186.46 131.561 186.46Z" fill="#E0E2EE"/>
<path fill-rule="evenodd" clip-rule="evenodd" d="M195.482 163.197C183.345 175.332 164.556 176.701 150.915 167.332C149.172 166.113 147.512 164.744 145.965 163.197C145.169 162.403 144.418 161.584 143.71 160.721C142.295 158.999 141.056 157.162 140.041 155.264C138.251 152.057 137.035 148.656 136.371 145.139C134.228 134.111 137.432 122.241 145.965 113.712C154.519 105.158 166.391 101.974 177.42 104.097C180.935 104.781 184.34 105.997 187.546 107.766C189.448 108.804 191.26 110.043 192.985 111.458C193.845 112.163 194.665 112.916 195.459 113.712C197.008 115.259 198.398 116.916 199.594 118.661C208.967 132.297 207.595 151.085 195.482 163.197Z" fill="white" fill-opacity="0.1"/>
<path fill-rule="evenodd" clip-rule="evenodd" d="M192.085 160.807C179.459 173.436 158.996 173.434 146.367 160.807C133.755 148.195 133.755 127.73 146.384 115.103C158.996 102.491 179.459 102.491 192.071 115.103C204.698 127.73 204.698 148.195 192.085 160.807ZM198.566 108.616C182.358 92.4086 156.095 92.4086 139.887 108.616C123.682 124.821 123.668 151.101 139.873 167.308C154.624 182.054 177.744 183.384 194.005 171.277C195.593 170.093 197.123 168.765 198.582 167.308C200.039 165.849 201.366 164.32 202.548 162.731C214.655 146.468 213.314 123.364 198.566 108.616Z" fill="#8991AD"/>
<path fill-rule="evenodd" clip-rule="evenodd" d="M262.349 228.402L261.668 229.083C257.167 233.586 249.795 233.586 245.291 229.083L203.727 187.518L220.784 170.46L262.349 212.025C266.853 216.529 266.853 223.898 262.349 228.402" fill="#DADDE2"/>
<path fill-rule="evenodd" clip-rule="evenodd" d="M203.444 161.46L215.727 173.743L207.007 182.46L194.727 170.178C196.347 168.97 197.906 167.615 199.397 166.128C200.883 164.642 202.238 163.081 203.444 161.46Z" fill="#8991AD"/>
<path fill-rule="evenodd" clip-rule="evenodd" d="M261.727 211.514L244.778 228.46L241.727 225.407L258.673 208.46L261.727 211.514Z" fill="#EBECEE"/>
<path fill-rule="evenodd" clip-rule="evenodd" d="M221.727 171.047L204.314 188.46L201.727 185.874L219.139 168.46L221.727 171.047Z" fill="#EBECEE"/>
<path fill-rule="evenodd" clip-rule="evenodd" d="M183.727 110.759L141.023 153.46C139.415 150.578 138.321 147.52 137.727 144.358L174.624 107.46C177.783 108.078 180.844 109.169 183.727 110.759Z" fill="white" fill-opacity="0.5"/>
<path fill-rule="evenodd" clip-rule="evenodd" d="M197.727 120.909L151.559 164.46C149.906 163.372 148.332 162.147 146.865 160.763C146.11 160.05 145.395 159.319 144.727 158.547L191.456 114.46C192.274 115.093 193.051 115.767 193.804 116.48C195.272 117.865 196.592 119.347 197.727 120.909Z" fill="white" fill-opacity="0.5"/>
<path d="M94.5698 280.96C95.9698 281.96 97.1298 282.96 98.0898 283.96L97.0698 284.98C96.2098 284.02 95.0298 283.02 93.5498 281.96L94.5698 280.96ZM94.0098 285.76C95.3298 286.76 96.4298 287.74 97.3298 288.74L96.2898 289.76C95.4898 288.82 94.3898 287.82 92.9898 286.76L94.0098 285.76ZM96.4898 291.2L97.7898 291.72C96.8698 294.2 95.8698 296.54 94.7498 298.74L93.3098 298.12C94.5298 295.86 95.5898 293.56 96.4898 291.2ZM100.27 290.74H99.0098V289.36H109.57V290.68C108.77 292.56 107.53 294.18 105.83 295.54C107.35 296.54 109.23 297.3 111.43 297.82L110.71 299.12C108.27 298.46 106.25 297.56 104.65 296.4C102.99 297.48 101.01 298.36 98.7098 299.06L97.9898 297.74C100.15 297.16 101.97 296.42 103.49 295.5C101.99 294.18 100.91 292.58 100.27 290.74ZM104.67 294.7C106.17 293.58 107.27 292.26 107.97 290.74H101.67C102.35 292.28 103.35 293.6 104.67 294.7ZM100.89 281.44H107.97V285.8C107.97 286.24 108.21 286.48 108.71 286.48H110.99V287.84H108.35C107.15 287.84 106.55 287.26 106.55 286.12V282.8H102.33V283.74C102.33 285.88 101.25 287.52 99.1298 288.68L98.1698 287.58C99.9698 286.72 100.89 285.5 100.89 283.9V281.44ZM119.09 287.86V290.04H127.03V287.86H119.09ZM127.03 291.3H119.09V293.42H127.03V291.3ZM127.03 294.68H119.09V298.96H117.73V288.5C116.61 289.9 115.31 291.2 113.87 292.36L112.93 291.14C115.45 289.14 117.39 286.86 118.77 284.28H113.47V282.88H119.43C119.77 282.1 120.07 281.32 120.31 280.54L121.77 280.72C121.53 281.46 121.29 282.18 121.01 282.88H130.95V284.28H120.41C120.01 285.08 119.59 285.86 119.11 286.6H128.39V297.4C128.39 298.38 127.83 298.88 126.71 298.92H124.47L124.11 297.6C124.87 297.64 125.59 297.68 126.25 297.68C126.77 297.68 127.03 297.44 127.03 296.96V294.68ZM149.65 281.32L150.35 282.54C148.91 283.02 147.23 283.38 145.31 283.6V289.22H151.17V290.62H145.31V296.9H150.17V298.32H139.05V296.9H143.87V290.62H138.05V289.22H143.87V283.74C142.51 283.84 141.07 283.9 139.55 283.9L139.09 282.54C143.33 282.54 146.85 282.12 149.65 281.32ZM137.49 280.7L138.83 281.32C138.31 282.86 137.63 284.32 136.83 285.68V299.04H135.39V287.82C134.75 288.66 134.03 289.48 133.25 290.26L132.79 288.72C134.95 286.4 136.51 283.72 137.49 280.7ZM158.83 281.88H171.19V283.28H169.65V297.08C169.65 298.32 169.01 298.94 167.77 298.94H164.37L164.07 297.52C165.19 297.58 166.27 297.62 167.27 297.62C167.87 297.62 168.19 297.32 168.19 296.72V283.28H158.83V281.88ZM159.33 286.28H165.81V293.76H159.33V286.28ZM164.41 292.44V287.58H160.71V292.44H164.41ZM157.23 280.54L158.53 281.16C158.05 282.66 157.45 284.08 156.73 285.44V299.04H155.31V287.74C154.69 288.62 154.01 289.48 153.27 290.28L152.81 288.74C154.83 286.36 156.31 283.62 157.23 280.54ZM180.33 295V296.36C178.29 297.1 175.99 297.7 173.39 298.18L173.21 296.78C175.93 296.34 178.29 295.74 180.33 295ZM176.63 280.6L177.97 281.12C176.95 283.72 175.91 285.8 174.87 287.36C175.81 287.24 176.75 287.1 177.71 286.94C178.09 286.22 178.49 285.48 178.89 284.72L180.15 285.18C178.33 288.56 176.81 290.96 175.59 292.4C177.11 292.1 178.61 291.7 180.09 291.2V292.48C177.93 293.22 175.85 293.72 173.85 293.98L173.47 292.68C173.73 292.56 173.95 292.42 174.13 292.26C174.89 291.48 175.83 290.16 176.95 288.28C175.81 288.46 174.67 288.62 173.51 288.78L173.15 287.46C173.37 287.36 173.57 287.18 173.75 286.92C174.87 285.08 175.83 282.98 176.63 280.6ZM180.09 283.14H184.87V280.72H186.33V283.14H191.09V284.54H186.33V287.5H190.51V288.9H180.75V287.5H184.87V284.54H180.09V283.14ZM189.93 290.9V298.94H188.53V297.98H182.81V298.94H181.39V290.9H189.93ZM182.81 296.62H188.53V292.26H182.81V296.62ZM195.37 281.46H208.71V289.2H202.83V291.02H210.79V292.38H204.11C205.53 294.18 207.91 295.8 211.23 297.2L210.25 298.46C206.77 296.64 204.33 294.62 202.93 292.38H202.83V298.98H201.35V292.38H201.27C199.75 294.84 197.27 296.86 193.79 298.44L192.97 297.12C196.23 295.88 198.59 294.3 200.05 292.38H193.39V291.02H201.35V289.2H195.37V281.46ZM207.29 287.94V286H202.83V287.94H207.29ZM201.35 287.94V286H196.81V287.94H201.35ZM196.81 284.74H201.35V282.74H196.81V284.74ZM202.83 282.74V284.74H207.29V282.74H202.83ZM214.73 294.62C215.05 294.62 215.35 294.74 215.59 294.98C215.83 295.22 215.95 295.5 215.95 295.86C215.95 296.2 215.83 296.48 215.59 296.72C215.35 296.96 215.05 297.08 214.73 297.08C214.37 297.08 214.09 296.96 213.87 296.72C213.63 296.48 213.51 296.2 213.51 295.86C213.51 295.5 213.63 295.22 213.87 294.98C214.09 294.74 214.37 294.62 214.73 294.62ZM220.003 294.62C220.323 294.62 220.623 294.74 220.863 294.98C221.103 295.22 221.223 295.5 221.223 295.86C221.223 296.2 221.103 296.48 220.863 296.72C220.623 296.96 220.323 297.08 220.003 297.08C219.643 297.08 219.363 296.96 219.143 296.72C218.903 296.48 218.783 296.2 218.783 295.86C218.783 295.5 218.903 295.22 219.143 294.98C219.363 294.74 219.643 294.62 220.003 294.62ZM225.277 294.62C225.597 294.62 225.897 294.74 226.137 294.98C226.377 295.22 226.497 295.5 226.497 295.86C226.497 296.2 226.377 296.48 226.137 296.72C225.897 296.96 225.597 297.08 225.277 297.08C224.917 297.08 224.637 296.96 224.417 296.72C224.177 296.48 224.057 296.2 224.057 295.86C224.057 295.5 224.177 295.22 224.417 294.98C224.637 294.74 224.917 294.62 225.277 294.62Z" fill="#8D9094"/>
</svg>
