<svg width="36" height="44" viewBox="0 0 36 44" fill="none" xmlns="http://www.w3.org/2000/svg">
<path d="M6 0H24C26.136 2.107 33.117 9.163 36 12V38C36 39.5913 35.3679 41.1174 34.2426 42.2426C33.1174 43.3679 31.5913 44 30 44H6C4.4087 44 2.88258 43.3679 1.75736 42.2426C0.632141 41.1174 0 39.5913 0 38L0 6C0 4.4087 0.632141 2.88258 1.75736 1.75736C2.88258 0.632141 4.4087 0 6 0V0Z" fill="url(#paint0_linear_82_9337)"/>
<path d="M9.66 20.432V21.284H14.64L9.3 28.196V29H16.188V28.148H10.572L15.9 21.248V20.432H9.66ZM17.4243 20.432V29H18.3963V20.432H17.4243ZM20.1999 20.432V29H21.1839V25.496H23.6919C25.6599 25.496 26.6559 24.644 26.6559 22.952C26.6559 21.272 25.6719 20.432 23.7039 20.432H20.1999ZM21.1839 21.284H23.6439C24.3279 21.284 24.8319 21.416 25.1679 21.704C25.5039 21.956 25.6719 22.376 25.6719 22.952C25.6719 23.528 25.5039 23.948 25.1799 24.224C24.8439 24.5 24.3399 24.644 23.6439 24.644H21.1839V21.284Z" fill="white"/>
<mask id="mask0_82_9337" style="mask-type:alpha" maskUnits="userSpaceOnUse" x="19" y="0" width="17" height="15">
<path d="M19 0H20.5H24L34 10L36 12V14V15H19V0Z" fill="black"/>
</mask>
<g mask="url(#mask0_82_9337)">
<g filter="url(#filter0_f_82_9337)">
<path d="M24 0L36 11.9962H30C28.4087 11.9962 26.8826 11.3642 25.7574 10.2394C24.6321 9.11453 24 7.58889 24 5.9981V0Z" fill="#0020C9" fill-opacity="0.8"/>
</g>
</g>
<path d="M24 0L36 11.9962H30C28.4087 11.9962 26.8826 11.3642 25.7574 10.2394C24.6321 9.11453 24 7.58889 24 5.9981V0Z" fill="#6692FF"/>
<defs>
<filter id="filter0_f_82_9337" x="21" y="-3" width="18" height="17.9962" filterUnits="userSpaceOnUse" color-interpolation-filters="sRGB">
<feFlood flood-opacity="0" result="BackgroundImageFix"/>
<feBlend mode="normal" in="SourceGraphic" in2="BackgroundImageFix" result="shape"/>
<feGaussianBlur stdDeviation="1.5" result="effect1_foregroundBlur_82_9337"/>
</filter>
<linearGradient id="paint0_linear_82_9337" x1="18" y1="0" x2="18" y2="44" gradientUnits="userSpaceOnUse">
<stop stop-color="#83BCFF"/>
<stop offset="1" stop-color="#4B69FF"/>
</linearGradient>
</defs>
</svg>
